<svg width="20" height="20" viewBox="0 0 20 20" fill="none" xmlns="http://www.w3.org/2000/svg">
  <symbol id="svg_agenda">
    <path d="M13.2493 5.57031C12.9737 5.57047 12.7067 5.66618 12.4937 5.84115C12.2807 6.01612 12.135 6.25951 12.0814 6.52987C12.0277 6.80023 12.0695 7.08082 12.1995 7.32383C12.3296 7.56685 12.5399 7.75726 12.7946 7.86262C13.0493 7.96798 13.3326 7.98177 13.5963 7.90164C13.8601 7.82151 14.0878 7.65242 14.2409 7.42318C14.3939 7.19394 14.4627 6.91873 14.4356 6.64444C14.4085 6.37016 14.2871 6.11376 14.0921 5.91894C13.9815 5.80815 13.8502 5.72031 13.7055 5.66048C13.5609 5.60065 13.4059 5.57001 13.2493 5.57031Z" fill="currentColor"/>
    <path d="M19.8828 0.806062C19.8826 0.804731 19.8826 0.803376 19.8828 0.802045C19.8451 0.636579 19.7618 0.484954 19.6425 0.364277C19.5232 0.243601 19.3725 0.158675 19.2074 0.119083C17.8772 -0.205436 15.7846 0.140509 13.4657 1.06898C11.1284 2.00638 8.93847 3.39016 7.45827 4.87303C6.98383 5.34495 6.54307 5.84956 6.13922 6.38314C5.14245 6.3385 4.26442 6.48045 3.52477 6.80318C0.947366 7.93744 0.211284 10.8402 0.0153233 12.0321C-0.0130328 12.2014 -0.00192989 12.375 0.0477681 12.5394C0.097466 12.7037 0.184418 12.8544 0.301858 12.9797C0.419298 13.1049 0.564058 13.2014 0.724871 13.2616C0.885684 13.3217 1.05821 13.344 1.22903 13.3266H1.23483L4.10595 13.0132C4.10952 13.0498 4.11354 13.0833 4.11667 13.1141C4.15354 13.464 4.30957 13.7905 4.55858 14.039L5.95977 15.4411C6.20789 15.6905 6.53438 15.8467 6.88423 15.8835L6.9802 15.8937L6.66773 18.7613V18.7671C6.65176 18.9215 6.6682 19.0776 6.71598 19.2253C6.76376 19.373 6.84185 19.5092 6.94524 19.625C7.04864 19.7408 7.17506 19.8338 7.31643 19.898C7.45781 19.9622 7.61102 19.9961 7.76627 19.9977C7.82833 19.9978 7.89029 19.9927 7.95152 19.9826C9.15005 19.7897 12.0515 19.0626 13.1827 16.4713C13.5027 15.7366 13.6442 14.8621 13.6045 13.8672C14.1405 13.4642 14.6469 13.0234 15.1199 12.5481C16.6122 11.0634 18.0004 8.89135 18.928 6.58803C19.8516 4.29542 20.1993 2.18716 19.8828 0.806062ZM15.1039 8.61236C14.7371 8.97952 14.2697 9.22965 13.7607 9.33109C13.2517 9.43254 12.7241 9.38074 12.2446 9.18227C11.7651 8.98379 11.3552 8.64755 11.0668 8.21608C10.7784 7.78461 10.6245 7.27729 10.6245 6.75832C10.6245 6.23935 10.7784 5.73204 11.0668 5.30057C11.3552 4.8691 11.7651 4.53285 12.2446 4.33437C12.7241 4.1359 13.2517 4.08411 13.7607 4.18555C14.2697 4.287 14.7371 4.53712 15.1039 4.90428C15.3497 5.14643 15.5449 5.43504 15.6782 5.75334C15.8114 6.07164 15.8801 6.41326 15.8801 6.75832C15.8801 7.10339 15.8114 7.44501 15.6782 7.7633C15.5449 8.0816 15.3497 8.37022 15.1039 8.61236Z" fill="currentColor"/>
    <path d="M5.80069 15.8208C5.62796 15.7993 5.45335 15.8417 5.30967 15.94C5.02444 16.135 4.73786 16.3279 4.4486 16.5158C3.8634 16.8961 3.16348 16.2283 3.51121 15.623L4.05356 14.6856C4.1311 14.5722 4.17427 14.4388 4.17791 14.3015C4.18154 14.1641 4.14548 14.0286 4.07405 13.9113C4.00262 13.7939 3.89885 13.6996 3.77519 13.6397C3.65153 13.5799 3.51322 13.5569 3.37684 13.5737C2.7749 13.6498 2.21538 13.924 1.78639 14.3531C1.62302 14.5169 1.12619 15.0142 0.858813 16.909C0.782705 17.4533 0.73473 18.0012 0.715078 18.5504C0.712635 18.6457 0.729303 18.7406 0.7641 18.8293C0.798897 18.9181 0.851117 18.999 0.917683 19.0673C0.984248 19.1356 1.06381 19.1898 1.15168 19.2268C1.23954 19.2639 1.33394 19.2829 1.42929 19.2829H1.44714C1.99679 19.2634 2.54507 19.2158 3.08982 19.1401C4.9856 18.8722 5.48287 18.375 5.64624 18.2116C6.07731 17.7824 6.35083 17.2203 6.4225 16.6162C6.44545 16.4283 6.39284 16.2389 6.27625 16.0898C6.15965 15.9406 5.9886 15.8439 5.80069 15.8208Z" fill="currentColor"/>
  </symbol>
</svg>
