<svg xmlns="http://www.w3.org/2000/svg" style="display:none">
  <symbol id="svg_aparment">
    <svg width="31" height="33" viewBox="0 0 31 33" fill="none" xmlns="http://www.w3.org/2000/svg">
      <path d="M26.9847 10.7931H19.4295V3.23793C19.4295 2.37918 19.0884 1.5556 18.4812 0.948368C17.8739 0.341138 17.0504 0 16.1916 0H3.23988C2.38113 0 1.55755 0.341138 0.950321 0.948368C0.343091 1.5556 0.00195313 2.37918 0.00195312 3.23793V31.3C0.00195313 31.5862 0.115666 31.8608 0.318076 32.0632C0.520486 32.2656 0.795012 32.3793 1.08126 32.3793H8.09678C8.2399 32.3793 8.37717 32.3224 8.47837 32.2212C8.57958 32.12 8.63643 31.9828 8.63643 31.8396V27.0131C8.63643 26.4323 9.083 25.9338 9.6638 25.9048C9.80973 25.8978 9.95558 25.9204 10.0925 25.9714C10.2294 26.0224 10.3545 26.1007 10.4603 26.2015C10.5661 26.3023 10.6503 26.4235 10.7078 26.5578C10.7654 26.6921 10.795 26.8366 10.7951 26.9827V31.8396C10.7951 31.9828 10.8519 32.12 10.9531 32.2212C11.0543 32.3224 11.1916 32.3793 11.3347 32.3793H29.1433C29.4296 32.3793 29.7041 32.2656 29.9065 32.0632C30.1089 31.8608 30.2226 31.5862 30.2226 31.3V14.031C30.2226 13.1723 29.8815 12.3487 29.2743 11.7415C28.667 11.1342 27.8435 10.7931 26.9847 10.7931ZM4.4595 28.0533C4.23597 28.0825 4.00889 28.041 3.81015 27.9346C3.6114 27.8282 3.45095 27.6623 3.35133 27.46C3.25171 27.2578 3.21791 27.0295 3.25468 26.8071C3.29145 26.5846 3.39694 26.3793 3.55635 26.2199C3.71576 26.0605 3.92108 25.955 4.1435 25.9182C4.36591 25.8815 4.59426 25.9153 4.79649 26.0149C4.99872 26.1145 5.16468 26.275 5.27108 26.4737C5.37748 26.6725 5.41897 26.8995 5.38973 27.1231C5.35888 27.359 5.25095 27.5781 5.08273 27.7463C4.9145 27.9145 4.6954 28.0224 4.4595 28.0533ZM4.4595 22.6567C4.23597 22.686 4.00889 22.6445 3.81015 22.5381C3.6114 22.4317 3.45095 22.2657 3.35133 22.0635C3.25171 21.8613 3.21791 21.6329 3.25468 21.4105C3.29145 21.1881 3.39694 20.9828 3.55635 20.8234C3.71576 20.6639 3.92108 20.5585 4.1435 20.5217C4.36591 20.4849 4.59426 20.5187 4.79649 20.6183C4.99872 20.718 5.16468 20.8784 5.27108 21.0772C5.37748 21.2759 5.41897 21.503 5.38973 21.7265C5.35888 21.9624 5.25095 22.1815 5.08273 22.3497C4.9145 22.518 4.6954 22.6259 4.4595 22.6567ZM4.4595 17.2602C4.23597 17.2894 4.00889 17.2479 3.81015 17.1415C3.6114 17.0351 3.45095 16.8692 3.35133 16.6669C3.25171 16.4647 3.21791 16.2364 3.25468 16.014C3.29145 15.7915 3.39694 15.5862 3.55635 15.4268C3.71576 15.2674 3.92108 15.1619 4.1435 15.1251C4.36591 15.0884 4.59426 15.1222 4.79649 15.2218C4.99872 15.3214 5.16468 15.4819 5.27108 15.6806C5.37748 15.8794 5.41897 16.1064 5.38973 16.33C5.35888 16.5659 5.25095 16.785 5.08273 16.9532C4.9145 17.1214 4.6954 17.2293 4.4595 17.2602ZM4.4595 11.8636C4.23597 11.8929 4.00889 11.8514 3.81015 11.745C3.6114 11.6386 3.45095 11.4726 3.35133 11.2704C3.25171 11.0682 3.21791 10.8398 3.25468 10.6174C3.29145 10.395 3.39694 10.1897 3.55635 10.0303C3.71576 9.87085 3.92108 9.76536 4.1435 9.72859C4.36591 9.69182 4.59426 9.72562 4.79649 9.82524C4.99872 9.92486 5.16468 10.0853 5.27108 10.2841C5.37748 10.4828 5.41897 10.7099 5.38973 10.9334C5.35888 11.1693 5.25095 11.3884 5.08273 11.5566C4.9145 11.7249 4.6954 11.8328 4.4595 11.8636ZM4.4595 6.46709C4.23597 6.49633 4.00889 6.45483 3.81015 6.34844C3.6114 6.24204 3.45095 6.07608 3.35133 5.87385C3.25171 5.67162 3.21791 5.44327 3.25468 5.22085C3.29145 4.99844 3.39694 4.79311 3.55635 4.63371C3.71576 4.4743 3.92108 4.36881 4.1435 4.33204C4.36591 4.29527 4.59426 4.32907 4.79649 4.42869C4.99872 4.52831 5.16468 4.68875 5.27108 4.8875C5.37748 5.08625 5.41897 5.31333 5.38973 5.53686C5.35888 5.77276 5.25095 5.99186 5.08273 6.16008C4.9145 6.32831 4.6954 6.43624 4.4595 6.46709ZM9.85605 22.6567C9.63252 22.686 9.40545 22.6445 9.2067 22.5381C9.00795 22.4317 8.8475 22.2657 8.74788 22.0635C8.64826 21.8613 8.61446 21.6329 8.65123 21.4105C8.688 21.1881 8.79349 20.9828 8.9529 20.8234C9.11231 20.6639 9.31763 20.5585 9.54005 20.5217C9.76246 20.4849 9.99081 20.5187 10.193 20.6183C10.3953 20.718 10.5612 20.8784 10.6676 21.0772C10.774 21.2759 10.8155 21.503 10.7863 21.7265C10.7554 21.9624 10.6475 22.1815 10.4793 22.3497C10.311 22.518 10.092 22.6259 9.85605 22.6567ZM9.85605 17.2602C9.63252 17.2894 9.40545 17.2479 9.2067 17.1415C9.00795 17.0351 8.8475 16.8692 8.74788 16.6669C8.64826 16.4647 8.61446 16.2364 8.65123 16.014C8.688 15.7915 8.79349 15.5862 8.9529 15.4268C9.11231 15.2674 9.31763 15.1619 9.54005 15.1251C9.76246 15.0884 9.99081 15.1222 10.193 15.2218C10.3953 15.3214 10.5612 15.4819 10.6676 15.6806C10.774 15.8794 10.8155 16.1064 10.7863 16.33C10.7554 16.5659 10.6475 16.785 10.4793 16.9532C10.311 17.1214 10.092 17.2293 9.85605 17.2602ZM9.85605 11.8636C9.63252 11.8929 9.40545 11.8514 9.2067 11.745C9.00795 11.6386 8.8475 11.4726 8.74788 11.2704C8.64826 11.0682 8.61446 10.8398 8.65123 10.6174C8.688 10.395 8.79349 10.1897 8.9529 10.0303C9.11231 9.87085 9.31763 9.76536 9.54005 9.72859C9.76246 9.69182 9.99081 9.72562 10.193 9.82524C10.3953 9.92486 10.5612 10.0853 10.6676 10.2841C10.774 10.4828 10.8155 10.7099 10.7863 10.9334C10.7554 11.1693 10.6475 11.3884 10.4793 11.5566C10.311 11.7249 10.092 11.8328 9.85605 11.8636ZM9.85605 6.46709C9.63252 6.49633 9.40545 6.45483 9.2067 6.34844C9.00795 6.24204 8.8475 6.07608 8.74788 5.87385C8.64826 5.67162 8.61446 5.44327 8.65123 5.22085C8.688 4.99844 8.79349 4.79311 8.9529 4.63371C9.11231 4.4743 9.31763 4.36881 9.54005 4.33204C9.76246 4.29527 9.99081 4.32907 10.193 4.42869C10.3953 4.52831 10.5612 4.68875 10.6676 4.8875C10.774 5.08625 10.8155 5.31333 10.7863 5.53686C10.7554 5.77276 10.6475 5.99186 10.4793 6.16008C10.311 6.32831 10.092 6.43624 9.85605 6.46709ZM15.2526 28.0533C15.0291 28.0825 14.802 28.041 14.6032 27.9346C14.4045 27.8282 14.2441 27.6623 14.1444 27.46C14.0448 27.2578 14.011 27.0295 14.0478 26.8071C14.0846 26.5846 14.19 26.3793 14.3495 26.2199C14.5089 26.0605 14.7142 25.955 14.9366 25.9182C15.159 25.8815 15.3874 25.9153 15.5896 26.0149C15.7918 26.1145 15.9578 26.275 16.0642 26.4737C16.1706 26.6725 16.2121 26.8995 16.1828 27.1231C16.152 27.359 16.0441 27.5781 15.8758 27.7463C15.7076 27.9145 15.4885 28.0224 15.2526 28.0533ZM15.2526 22.6567C15.0291 22.686 14.802 22.6445 14.6032 22.5381C14.4045 22.4317 14.2441 22.2657 14.1444 22.0635C14.0448 21.8613 14.011 21.6329 14.0478 21.4105C14.0846 21.1881 14.19 20.9828 14.3495 20.8234C14.5089 20.6639 14.7142 20.5585 14.9366 20.5217C15.159 20.4849 15.3874 20.5187 15.5896 20.6183C15.7918 20.718 15.9578 20.8784 16.0642 21.0772C16.1706 21.2759 16.2121 21.503 16.1828 21.7265C16.152 21.9624 16.0441 22.1815 15.8758 22.3497C15.7076 22.518 15.4885 22.6259 15.2526 22.6567ZM15.2526 17.2602C15.0291 17.2894 14.802 17.2479 14.6032 17.1415C14.4045 17.0351 14.2441 16.8692 14.1444 16.6669C14.0448 16.4647 14.011 16.2364 14.0478 16.014C14.0846 15.7915 14.19 15.5862 14.3495 15.4268C14.5089 15.2674 14.7142 15.1619 14.9366 15.1251C15.159 15.0884 15.3874 15.1222 15.5896 15.2218C15.7918 15.3214 15.9578 15.4819 16.0642 15.6806C16.1706 15.8794 16.2121 16.1064 16.1828 16.33C16.152 16.5659 16.0441 16.785 15.8758 16.9532C15.7076 17.1214 15.4885 17.2293 15.2526 17.2602ZM15.2526 11.8636C15.0291 11.8929 14.802 11.8514 14.6032 11.745C14.4045 11.6386 14.2441 11.4726 14.1444 11.2704C14.0448 11.0682 14.011 10.8398 14.0478 10.6174C14.0846 10.395 14.19 10.1897 14.3495 10.0303C14.5089 9.87085 14.7142 9.76536 14.9366 9.72859C15.159 9.69182 15.3874 9.72562 15.5896 9.82524C15.7918 9.92486 15.9578 10.0853 16.0642 10.2841C16.1706 10.4828 16.2121 10.7099 16.1828 10.9334C16.152 11.1693 16.0441 11.3884 15.8758 11.5566C15.7076 11.7249 15.4885 11.8328 15.2526 11.8636ZM15.2526 6.46709C15.0291 6.49633 14.802 6.45483 14.6032 6.34844C14.4045 6.24204 14.2441 6.07608 14.1444 5.87385C14.0448 5.67162 14.011 5.44327 14.0478 5.22085C14.0846 4.99844 14.19 4.79311 14.3495 4.63371C14.5089 4.4743 14.7142 4.36881 14.9366 4.33204C15.159 4.29527 15.3874 4.32907 15.5896 4.42869C15.7918 4.52831 15.9578 4.68875 16.0642 4.8875C16.1706 5.08625 16.2121 5.31333 16.1828 5.53686C16.152 5.77276 16.0441 5.99186 15.8758 6.16008C15.7076 6.32831 15.4885 6.43624 15.2526 6.46709ZM27.7942 30.2207H19.4295V12.9517H26.9847C27.271 12.9517 27.5455 13.0654 27.7479 13.2678C27.9503 13.4703 28.064 13.7448 28.064 14.031V29.9509C28.064 30.0224 28.0356 30.091 27.985 30.1416C27.9344 30.1923 27.8657 30.2207 27.7942 30.2207Z"  fill="currentColor"/>
      <path d="M24.8262 25.9044C24.6128 25.9044 24.4041 25.9677 24.2266 26.0863C24.0491 26.2049 23.9108 26.3735 23.8291 26.5707C23.7474 26.7679 23.726 26.9849 23.7677 27.1943C23.8093 27.4037 23.9121 27.596 24.063 27.7469C24.214 27.8979 24.4063 28.0007 24.6157 28.0423C24.825 28.084 25.0421 28.0626 25.2393 27.9809C25.4365 27.8992 25.6051 27.7609 25.7237 27.5834C25.8422 27.4059 25.9055 27.1972 25.9055 26.9837C25.9055 26.6975 25.7918 26.423 25.5894 26.2206C25.387 26.0181 25.1125 25.9044 24.8262 25.9044ZM24.8262 20.5079C24.6128 20.5079 24.4041 20.5712 24.2266 20.6898C24.0491 20.8084 23.9108 20.9769 23.8291 21.1742C23.7474 21.3714 23.726 21.5884 23.7677 21.7978C23.8093 22.0071 23.9121 22.1994 24.063 22.3504C24.214 22.5013 24.4063 22.6041 24.6157 22.6458C24.825 22.6874 25.0421 22.666 25.2393 22.5843C25.4365 22.5027 25.6051 22.3643 25.7237 22.1868C25.8422 22.0093 25.9055 21.8007 25.9055 21.5872C25.9055 21.3009 25.7918 21.0264 25.5894 20.824C25.387 20.6216 25.1125 20.5079 24.8262 20.5079ZM24.8262 15.1113C24.6128 15.1113 24.4041 15.1746 24.2266 15.2932C24.0491 15.4118 23.9108 15.5804 23.8291 15.7776C23.7474 15.9748 23.726 16.1918 23.7677 16.4012C23.8093 16.6106 23.9121 16.8029 24.063 16.9538C24.214 17.1048 24.4063 17.2076 24.6157 17.2492C24.825 17.2909 25.0421 17.2695 25.2393 17.1878C25.4365 17.1061 25.6051 16.9678 25.7237 16.7903C25.8422 16.6128 25.9055 16.4041 25.9055 16.1906C25.9055 15.9044 25.7918 15.6299 25.5894 15.4275C25.387 15.225 25.1125 15.1113 24.8262 15.1113ZM20.509 25.9044C20.2955 25.9044 20.0869 25.9677 19.9094 26.0863C19.7319 26.2049 19.5935 26.3735 19.5118 26.5707C19.4302 26.7679 19.4088 26.9849 19.4504 27.1943C19.4921 27.4037 19.5949 27.596 19.7458 27.7469C19.8968 27.8979 20.0891 28.0007 20.2984 28.0423C20.5078 28.084 20.7248 28.0626 20.922 27.9809C21.1192 27.8992 21.2878 27.7609 21.4064 27.5834C21.525 27.4059 21.5883 27.1972 21.5883 26.9837C21.5883 26.6975 21.4746 26.423 21.2722 26.2206C21.0698 26.0181 20.7952 25.9044 20.509 25.9044ZM20.509 20.5079C20.2955 20.5079 20.0869 20.5712 19.9094 20.6898C19.7319 20.8084 19.5935 20.9769 19.5118 21.1742C19.4302 21.3714 19.4088 21.5884 19.4504 21.7978C19.4921 22.0071 19.5949 22.1994 19.7458 22.3504C19.8968 22.5013 20.0891 22.6041 20.2984 22.6458C20.5078 22.6874 20.7248 22.666 20.922 22.5843C21.1192 22.5027 21.2878 22.3643 21.4064 22.1868C21.525 22.0093 21.5883 21.8007 21.5883 21.5872C21.5883 21.3009 21.4746 21.0264 21.2722 20.824C21.0698 20.6216 20.7952 20.5079 20.509 20.5079ZM20.509 15.1113C20.2955 15.1113 20.0869 15.1746 19.9094 15.2932C19.7319 15.4118 19.5935 15.5804 19.5118 15.7776C19.4302 15.9748 19.4088 16.1918 19.4504 16.4012C19.4921 16.6106 19.5949 16.8029 19.7458 16.9538C19.8968 17.1048 20.0891 17.2076 20.2984 17.2492C20.5078 17.2909 20.7248 17.2695 20.922 17.1878C21.1192 17.1061 21.2878 16.9678 21.4064 16.7903C21.525 16.6128 21.5883 16.4041 21.5883 16.1906C21.5883 15.9044 21.4746 15.6299 21.2722 15.4275C21.0698 15.225 20.7952 15.1113 20.509 15.1113Z"  fill="currentColor"/>
    </svg>
  </symbol>
</svg>
