<svg width="24" height="15" viewBox="0 0 24 15" fill="none" xmlns="http://www.w3.org/2000/svg">
  <path d="M22.8 2.64706H1.2C0.88174 2.64706 0.576516 2.50762 0.351472 2.25941C0.126428 2.0112 0 1.67455 0 1.32353C0 0.972508 0.126428 0.635863 0.351472 0.387653C0.576516 0.139443 0.88174 0 1.2 0H22.8C23.1183 0 23.4235 0.139443 23.6485 0.387653C23.8736 0.635863 24 0.972508 24 1.32353C24 1.67455 23.8736 2.0112 23.6485 2.25941C23.4235 2.50762 23.1183 2.64706 22.8 2.64706ZM18.8 8.82353H5.2C4.88174 8.82353 4.57652 8.68409 4.35147 8.43588C4.12643 8.18767 4 7.85102 4 7.5C4 7.14898 4.12643 6.81233 4.35147 6.56412C4.57652 6.31591 4.88174 6.17647 5.2 6.17647H18.8C19.1183 6.17647 19.4235 6.31591 19.6485 6.56412C19.8736 6.81233 20 7.14898 20 7.5C20 7.85102 19.8736 8.18767 19.6485 8.43588C19.4235 8.68409 19.1183 8.82353 18.8 8.82353ZM14 15H10C9.68174 15 9.37652 14.8606 9.15147 14.6123C8.92643 14.3641 8.8 14.0275 8.8 13.6765C8.8 13.3254 8.92643 12.9888 9.15147 12.7406C9.37652 12.4924 9.68174 12.3529 10 12.3529H14C14.3183 12.3529 14.6235 12.4924 14.8485 12.7406C15.0736 12.9888 15.2 13.3254 15.2 13.6765C15.2 14.0275 15.0736 14.3641 14.8485 14.6123C14.6235 14.8606 14.3183 15 14 15Z" fill="#066B4B"/>
</svg>
