<svg width="24" height="24" viewBox="0 0 35 35" fill="none" xmlns="http://www.w3.org/2000/svg">
  <path d="M30.1427 5.60911C23.5679 -1.34348 12.5622 -1.65083 5.60964 4.92398C-1.34295 11.4988 -1.65031 22.5045 4.92451 29.4571C11.4993 36.4097 22.505 36.717 29.4576 30.1422C36.4102 23.5674 36.7176 12.5617 30.1427 5.60911ZM21.1498 23.3L17.4809 19.4203L13.6012 23.0892C13.344 23.3324 13.0006 23.4636 12.6467 23.4537C12.2928 23.4438 11.9573 23.2937 11.714 23.0365C11.4708 22.7792 11.3397 22.4359 11.3495 22.082C11.3594 21.7281 11.5095 21.3926 11.7667 21.1493L15.6465 17.4804L11.9775 13.6007C11.7343 13.3434 11.6032 13.0001 11.613 12.6462C11.6229 12.2923 11.773 11.9568 12.0302 11.7135C12.2875 11.4702 12.6308 11.3391 12.9847 11.349C13.3387 11.3589 13.6741 11.509 13.9174 11.7662L17.5863 15.6459L21.4661 11.977C21.7233 11.7338 22.0666 11.6026 22.4205 11.6125C22.7745 11.6224 23.1099 11.7725 23.3532 12.0297C23.5965 12.287 23.7276 12.6303 23.7177 12.9842C23.7078 13.3381 23.5578 13.6736 23.3005 13.9169L19.4208 17.5858L23.0897 21.4655C23.333 21.7228 23.4641 22.0661 23.4542 22.42C23.4443 22.7739 23.2942 23.1094 23.037 23.3527C22.7798 23.596 22.4364 23.7271 22.0825 23.7172C21.7286 23.7073 21.3931 23.5572 21.1498 23.3Z" fill="#066B4B"/>
</svg>
