<svg width="20" height="20" viewBox="0 0 20 20" fill="none" xmlns="http://www.w3.org/2000/svg">
  <symbol id="svg_contacts">
    <path d="M13.9999 7.49999C13.1004 7.49999 12.2306 7.1088 11.5499 6.39886C10.888 5.70639 10.4837 4.78295 10.4124 3.79943C10.3363 2.75028 10.6648 1.78551 11.3373 1.08239C12.0097 0.379261 12.9499 0 13.9999 0C15.0424 0 15.9852 0.386079 16.6555 1.0875C17.3323 1.79574 17.6617 2.7588 17.5856 3.799C17.5125 4.7838 17.1087 5.70681 16.4481 6.39843C15.7691 7.1088 14.8998 7.49999 13.9999 7.49999ZM19.7674 15H8.23278C8.04733 15.0009 7.86413 14.9605 7.69726 14.8816C7.5304 14.8028 7.38433 14.6877 7.27029 14.5453C7.14932 14.3909 7.06578 14.2118 7.02593 14.0215C6.98608 13.8312 6.99094 13.6345 7.04016 13.4463C7.40854 12.0055 8.32116 10.8106 9.67915 9.99118C10.8845 9.26419 12.4188 8.86363 13.9999 8.86363C15.6121 8.86363 17.1061 9.24715 18.3184 9.97371C19.6795 10.7889 20.5934 11.9906 20.96 13.4488C21.0087 13.6372 21.013 13.8338 20.9727 14.0241C20.9324 14.2143 20.8485 14.3932 20.7273 14.5474C20.6134 14.6892 20.4676 14.8037 20.3012 14.8822C20.1349 14.9606 19.9523 15.0009 19.7674 15ZM5.73117 7.67045C4.19162 7.67045 2.838 6.27613 2.71244 4.56264C2.65031 3.6848 2.93119 2.87301 3.49993 2.2777C4.06255 1.68835 4.85617 1.36363 5.73117 1.36363C6.60617 1.36363 7.39366 1.69006 7.95935 2.28281C8.53247 2.88281 8.81247 3.69289 8.74684 4.56349C8.62128 6.27656 7.2681 7.67045 5.73117 7.67045ZM8.60378 9.01064C7.83422 8.64417 6.83541 8.46093 5.73161 8.46093C4.44274 8.46093 3.19106 8.7882 2.20669 9.38223C1.09063 10.0568 0.339886 11.0391 0.0367001 12.225C-0.00766873 12.3956 -0.0118652 12.5737 0.0244245 12.7461C0.0607142 12.9185 0.136551 13.0806 0.246261 13.2204C0.350363 13.3506 0.483728 13.4558 0.636101 13.5279C0.788474 13.6 0.955794 13.6371 1.12519 13.6363H5.98142C6.06338 13.6363 6.14275 13.6083 6.20567 13.5571C6.26859 13.506 6.31108 13.4349 6.32573 13.3564C6.33054 13.3295 6.33667 13.3027 6.34367 13.2763C6.71466 11.8248 7.58397 10.5984 8.86847 9.70439C8.91571 9.67122 8.95371 9.62709 8.97902 9.576C9.00433 9.52492 9.01615 9.46848 9.01342 9.41182C9.01068 9.35516 8.99347 9.30005 8.96335 9.25151C8.93322 9.20296 8.89114 9.1625 8.8409 9.1338C8.77222 9.09459 8.69347 9.05326 8.60378 9.01064Z" fill="currentColor"/>
  </symbol>
</svg>
