<svg width="14" height="17" viewBox="0 0 14 17" fill="none" xmlns="http://www.w3.org/2000/svg">
  <path d="M13.4167 2.78571H9.91667V1.92857C9.91667 1.54969 9.76302 1.18633 9.48953 0.918419C9.21604 0.65051 8.84511 0.5 8.45833 0.5H5.54167C5.15489 0.5 4.78396 0.65051 4.51047 0.918419C4.23698 1.18633 4.08333 1.54969 4.08333 1.92857V2.78571H0.583333C0.428624 2.78571 0.280251 2.84592 0.170855 2.95308C0.0614583 3.06025 0 3.20559 0 3.35714C0 3.5087 0.0614583 3.65404 0.170855 3.7612C0.280251 3.86837 0.428624 3.92857 0.583333 3.92857H1.20313L1.89583 14.8186C1.9476 15.7775 2.69792 16.5 3.64583 16.5H10.3542C11.3068 16.5 12.0422 15.7936 12.1042 14.8214L12.7969 3.92857H13.4167C13.5714 3.92857 13.7198 3.86837 13.8291 3.7612C13.9385 3.65404 14 3.5087 14 3.35714C14 3.20559 13.9385 3.06025 13.8291 2.95308C13.7198 2.84592 13.5714 2.78571 13.4167 2.78571ZM4.68745 14.2143H4.66667C4.51549 14.2144 4.37018 14.157 4.26136 14.0542C4.15255 13.9514 4.08872 13.8112 4.08333 13.6632L3.79167 5.66321C3.78616 5.51166 3.84233 5.36417 3.94783 5.25319C4.05333 5.14221 4.19951 5.07683 4.35422 5.07143C4.50893 5.06603 4.65949 5.12106 4.77278 5.2244C4.88608 5.32775 4.95282 5.47095 4.95833 5.6225L5.25 13.6225C5.25278 13.6976 5.24043 13.7724 5.21365 13.8428C5.18687 13.9132 5.1462 13.9777 5.09395 14.0326C5.04171 14.0876 4.97891 14.1319 4.90916 14.1631C4.83941 14.1943 4.76407 14.2117 4.68745 14.2143ZM7.58333 13.6429C7.58333 13.7944 7.52188 13.9398 7.41248 14.0469C7.30308 14.1541 7.15471 14.2143 7 14.2143C6.84529 14.2143 6.69692 14.1541 6.58752 14.0469C6.47813 13.9398 6.41667 13.7944 6.41667 13.6429V5.64286C6.41667 5.4913 6.47813 5.34596 6.58752 5.2388C6.69692 5.13163 6.84529 5.07143 7 5.07143C7.15471 5.07143 7.30308 5.13163 7.41248 5.2388C7.52188 5.34596 7.58333 5.4913 7.58333 5.64286V13.6429ZM8.75 2.78571H5.25V1.92857C5.24956 1.89093 5.2568 1.85358 5.27131 1.81873C5.28581 1.78387 5.30728 1.7522 5.33445 1.72558C5.36162 1.69896 5.39395 1.67793 5.42953 1.66373C5.46512 1.64952 5.50324 1.64243 5.54167 1.64286H8.45833C8.49676 1.64243 8.53488 1.64952 8.57047 1.66373C8.60605 1.67793 8.63838 1.69896 8.66555 1.72558C8.69273 1.7522 8.71419 1.78387 8.7287 1.81873C8.7432 1.85358 8.75044 1.89093 8.75 1.92857V2.78571ZM9.91667 13.6632C9.91128 13.8112 9.84745 13.9514 9.73864 14.0542C9.62982 14.157 9.48451 14.2144 9.33333 14.2143H9.31219C9.2356 14.2116 9.1603 14.1942 9.09059 14.163C9.02088 14.1318 8.95813 14.0875 8.90592 14.0325C8.85371 13.9775 8.81307 13.913 8.78631 13.8427C8.75956 13.7723 8.74722 13.6975 8.75 13.6225L9.04167 5.6225C9.0444 5.54746 9.06219 5.47368 9.09402 5.40537C9.12586 5.33707 9.17112 5.27557 9.22722 5.2244C9.28331 5.17323 9.34915 5.13338 9.42097 5.10714C9.49279 5.08089 9.56918 5.06876 9.64578 5.07143C9.72239 5.0741 9.7977 5.09153 9.86743 5.12272C9.93716 5.1539 9.99994 5.19824 10.0522 5.25319C10.1044 5.30814 10.1451 5.37264 10.1719 5.44299C10.1987 5.51334 10.2111 5.58817 10.2083 5.66321L9.91667 13.6632Z" fill="#F9B234"/>
</svg>
