<svg width="15" height="24" viewBox="0 0 15 17" fill="none" xmlns="http://www.w3.org/2000/svg">
  <path d="M14.375 2.42857H10.625V1.51786C10.625 1.1153 10.4604 0.729223 10.1674 0.44457C9.87433 0.159917 9.4769 0 9.0625 0H5.9375C5.5231 0 5.12567 0.159917 4.83265 0.44457C4.53962 0.729223 4.375 1.1153 4.375 1.51786V2.42857H0.625C0.45924 2.42857 0.300269 2.49254 0.183058 2.6064C0.0658481 2.72026 0 2.87469 0 3.03571C0 3.19674 0.0658481 3.35117 0.183058 3.46503C0.300269 3.57889 0.45924 3.64286 0.625 3.64286H1.28906L2.03125 15.2135C2.08672 16.2323 2.89062 17 3.90625 17H11.0938C12.1145 17 12.9023 16.2494 12.9688 15.2165L13.7109 3.64286H14.375C14.5408 3.64286 14.6997 3.57889 14.8169 3.46503C14.9342 3.35117 15 3.19674 15 3.03571C15 2.87469 14.9342 2.72026 14.8169 2.6064C14.6997 2.49254 14.5408 2.42857 14.375 2.42857ZM5.02227 14.5714H5C4.83803 14.5715 4.68234 14.5105 4.56575 14.4013C4.44916 14.2921 4.38077 14.1432 4.375 13.9859L4.0625 5.48592C4.05659 5.32489 4.11678 5.16818 4.22981 5.05027C4.34285 4.93235 4.49947 4.86288 4.66523 4.85714C4.83099 4.85141 4.99231 4.90987 5.1137 5.01968C5.23508 5.12948 5.30659 5.28163 5.3125 5.44266L5.625 13.9427C5.62798 14.0224 5.61474 14.1019 5.58605 14.1767C5.55737 14.2515 5.51378 14.32 5.45781 14.3784C5.40183 14.4368 5.33455 14.4839 5.25981 14.517C5.18508 14.5502 5.10436 14.5686 5.02227 14.5714ZM8.125 13.9643C8.125 14.1253 8.05915 14.2797 7.94194 14.3936C7.82473 14.5075 7.66576 14.5714 7.5 14.5714C7.33424 14.5714 7.17527 14.5075 7.05806 14.3936C6.94085 14.2797 6.875 14.1253 6.875 13.9643V5.46429C6.875 5.30326 6.94085 5.14883 7.05806 5.03497C7.17527 4.92111 7.33424 4.85714 7.5 4.85714C7.66576 4.85714 7.82473 4.92111 7.94194 5.03497C8.05915 5.14883 8.125 5.30326 8.125 5.46429V13.9643ZM9.375 2.42857H5.625V1.51786C5.62453 1.47786 5.63229 1.43818 5.64783 1.40115C5.66337 1.36411 5.68637 1.33046 5.71548 1.30218C5.74459 1.2739 5.77923 1.25156 5.81736 1.23646C5.85548 1.22137 5.89633 1.21383 5.9375 1.21429H9.0625C9.10367 1.21383 9.14452 1.22137 9.18264 1.23646C9.22077 1.25156 9.25541 1.2739 9.28452 1.30218C9.31363 1.33046 9.33663 1.36411 9.35217 1.40115C9.36771 1.43818 9.37547 1.47786 9.375 1.51786V2.42857ZM10.625 13.9859C10.6192 14.1432 10.5508 14.2921 10.4343 14.4013C10.3177 14.5105 10.162 14.5715 10 14.5714H9.97734C9.89528 14.5686 9.8146 14.5501 9.73992 14.5169C9.66523 14.4838 9.59799 14.4367 9.54206 14.3783C9.48612 14.3199 9.44257 14.2514 9.41391 14.1766C9.38524 14.1019 9.37202 14.0224 9.375 13.9427L9.6875 5.44266C9.69042 5.36293 9.70949 5.28453 9.7436 5.21196C9.77771 5.13938 9.8262 5.07405 9.8863 5.01968C9.94641 4.96531 10.0169 4.92297 10.0939 4.89508C10.1708 4.86719 10.2527 4.8543 10.3348 4.85714C10.4168 4.85998 10.4975 4.8785 10.5722 4.91164C10.647 4.94477 10.7142 4.99188 10.7702 5.05027C10.8262 5.10865 10.8697 5.17718 10.8984 5.25192C10.9272 5.32667 10.9404 5.40618 10.9375 5.48592L10.625 13.9859Z" fill="#066B4B"/>
</svg>
