<svg width="16" height="24" viewBox="0 0 16 24" fill="none" xmlns="http://www.w3.org/2000/svg">
  <path d="M15.8182 9.97403H9.45455C8.87589 9.97403 8.32094 9.71132 7.91177 9.2437C7.5026 8.77607 7.27273 8.14184 7.27273 7.48052V0.207792C7.27273 0.152682 7.25357 0.0998296 7.21947 0.060861C7.18538 0.0218924 7.13913 0 7.09091 0H2.90909C2.13755 0 1.39761 0.350277 0.852053 0.973775C0.306493 1.59727 0 2.44292 0 3.32468V19.9481C0 20.8298 0.306493 21.6755 0.852053 22.299C1.39761 22.9224 2.13755 23.2727 2.90909 23.2727H13.0909C13.8624 23.2727 14.6024 22.9224 15.1479 22.299C15.6935 21.6755 16 20.8298 16 19.9481V10.1818C16 10.1267 15.9808 10.0739 15.9467 10.0349C15.9127 9.99592 15.8664 9.97403 15.8182 9.97403ZM11.6364 18.2857H4.36364C4.17075 18.2857 3.98577 18.1981 3.84938 18.0423C3.71299 17.8864 3.63636 17.675 3.63636 17.4545C3.63636 17.2341 3.71299 17.0227 3.84938 16.8668C3.98577 16.7109 4.17075 16.6234 4.36364 16.6234H11.6364C11.8292 16.6234 12.0142 16.7109 12.1506 16.8668C12.287 17.0227 12.3636 17.2341 12.3636 17.4545C12.3636 17.675 12.287 17.8864 12.1506 18.0423C12.0142 18.1981 11.8292 18.2857 11.6364 18.2857ZM11.6364 14.1299H4.36364C4.17075 14.1299 3.98577 14.0423 3.84938 13.8864C3.71299 13.7306 3.63636 13.5191 3.63636 13.2987C3.63636 13.0783 3.71299 12.8668 3.84938 12.711C3.98577 12.5551 4.17075 12.4675 4.36364 12.4675H11.6364C11.8292 12.4675 12.0142 12.5551 12.1506 12.711C12.287 12.8668 12.3636 13.0783 12.3636 13.2987C12.3636 13.5191 12.287 13.7306 12.1506 13.8864C12.0142 14.0423 11.8292 14.1299 11.6364 14.1299Z" fill="#F9B234"/>
  <path d="M15.4174 8.13465L8.88059 0.664002C8.86787 0.64956 8.85171 0.639735 8.83413 0.635762C8.81654 0.631789 8.79832 0.633846 8.78176 0.641673C8.76519 0.649501 8.75102 0.66275 8.74103 0.679756C8.73103 0.696761 8.72566 0.716764 8.72559 0.737249V7.48063C8.72559 7.70107 8.80221 7.91248 8.9386 8.06835C9.07499 8.22423 9.25997 8.31179 9.45286 8.31179H15.3533C15.3712 8.31171 15.3887 8.30557 15.4036 8.29415C15.4185 8.28272 15.4301 8.26653 15.4369 8.2476C15.4438 8.22867 15.4456 8.20785 15.4421 8.18775C15.4386 8.16765 15.43 8.14918 15.4174 8.13465Z" fill="#F9B234"/>
</svg>
