<svg width="32" height="32" viewBox="0 0 32 32" fill="none" xmlns="http://www.w3.org/2000/svg">
  <path d="M9.33203 16.3334C9.33203 15.7811 9.77975 15.3334 10.332 15.3334C10.8843 15.3334 11.332 15.7811 11.332 16.3334C11.332 16.8856 10.8843 17.3334 10.332 17.3334C9.77975 17.3334 9.33203 16.8856 9.33203 16.3334ZM10.332 19.3334C9.77975 19.3334 9.33203 19.7811 9.33203 20.3334C9.33203 20.8856 9.77975 21.3334 10.332 21.3334C10.8843 21.3334 11.332 20.8856 11.332 20.3334C11.332 19.7811 10.8843 19.3334 10.332 19.3334ZM9.33203 24.3334C9.33203 23.7811 9.77975 23.3334 10.332 23.3334C10.8843 23.3334 11.332 23.7811 11.332 24.3334C11.332 24.8856 10.8843 25.3334 10.332 25.3334C9.77975 25.3334 9.33203 24.8856 9.33203 24.3334ZM14.332 15.3334C13.7798 15.3334 13.332 15.7811 13.332 16.3334C13.332 16.8856 13.7798 17.3334 14.332 17.3334H21.6654C22.2176 17.3334 22.6654 16.8856 22.6654 16.3334C22.6654 15.7811 22.2176 15.3334 21.6654 15.3334H14.332ZM13.332 20.3334C13.332 19.7811 13.7798 19.3334 14.332 19.3334H21.6654C22.2176 19.3334 22.6654 19.7811 22.6654 20.3334C22.6654 20.8856 22.2176 21.3334 21.6654 21.3334H14.332C13.7798 21.3334 13.332 20.8856 13.332 20.3334ZM14.332 23.3334C13.7798 23.3334 13.332 23.7811 13.332 24.3334C13.332 24.8856 13.7798 25.3334 14.332 25.3334H21.6654C22.2176 25.3334 22.6654 24.8856 22.6654 24.3334C22.6654 23.7811 22.2176 23.3334 21.6654 23.3334H14.332ZM25.884 11.2187L18.112 3.44802C18.092 3.42809 18.0695 3.41079 18.0471 3.39361C18.0304 3.38091 18.014 3.36829 17.9987 3.35469C17.904 3.26935 17.8107 3.18535 17.7067 3.11469C17.673 3.09194 17.6362 3.07399 17.5994 3.05611C17.578 3.0457 17.5567 3.03531 17.536 3.02402C17.5138 3.01147 17.4916 2.99865 17.4694 2.98579C17.3971 2.94398 17.3246 2.90199 17.248 2.86935C16.9854 2.76002 16.7027 2.70535 16.416 2.68535C16.3898 2.68367 16.3638 2.68013 16.3376 2.67657C16.3015 2.67163 16.2652 2.66669 16.228 2.66669H7.9987C6.5267 2.66669 5.33203 3.86135 5.33203 5.33335V26.6667C5.33203 28.1387 6.5267 29.3334 7.9987 29.3334H23.9987C25.4707 29.3334 26.6654 28.1387 26.6654 26.6667V13.104C26.6654 12.3974 26.384 11.7187 25.884 11.2187ZM24.6654 26.6667C24.6654 27.0334 24.3667 27.3334 23.9987 27.3334H7.9987C7.6307 27.3334 7.33203 27.0334 7.33203 26.6667V5.33335C7.33203 4.96669 7.6307 4.66669 7.9987 4.66669H15.9987V10.6667C15.9987 12.1387 17.1934 13.3334 18.6654 13.3334H24.6654V26.6667ZM17.9987 6.16135L23.1694 11.3334H18.6654C18.2974 11.3334 17.9987 11.0334 17.9987 10.6667V6.16135Z" fill="#999999"/>
</svg>
