<svg width="19" height="19" viewBox="0 0 19 19" fill="none" xmlns="http://www.w3.org/2000/svg">
  <path d="M15.9462 3.39258H6.44615C5.63629 3.39258 4.8596 3.71429 4.28695 4.28695C3.71429 4.8596 3.39258 5.63629 3.39258 6.44615V15.9462C3.39258 16.756 3.71429 17.5327 4.28695 18.1054C4.8596 18.678 5.63629 18.9997 6.44615 18.9997H15.9462C16.756 18.9997 17.5327 18.678 18.1054 18.1054C18.678 17.5327 18.9997 16.756 18.9997 15.9462V6.44615C18.9997 5.63629 18.678 4.8596 18.1054 4.28695C17.5327 3.71429 16.756 3.39258 15.9462 3.39258ZM14.5699 11.8747H11.8747V14.5699C11.8747 14.9351 11.594 15.2485 11.2288 15.2667C11.1371 15.2712 11.0454 15.2569 10.9593 15.2248C10.8732 15.1928 10.7945 15.1436 10.728 15.0802C10.6615 15.0168 10.6086 14.9406 10.5724 14.8562C10.5362 14.7718 10.5176 14.6809 10.5176 14.589V11.8747H7.82238C7.45722 11.8747 7.14381 11.594 7.12557 11.2288C7.12115 11.1371 7.1354 11.0454 7.16747 10.9593C7.19953 10.8732 7.24873 10.7945 7.3121 10.728C7.37547 10.6615 7.45168 10.6086 7.53611 10.5724C7.62054 10.5362 7.71144 10.5176 7.80329 10.5176H10.5176V7.82238C10.5176 7.45722 10.7983 7.14381 11.1635 7.12557C11.2552 7.12115 11.3469 7.1354 11.433 7.16747C11.5191 7.19953 11.5978 7.24873 11.6643 7.3121C11.7308 7.37547 11.7837 7.45168 11.8199 7.53611C11.8561 7.62054 11.8747 7.71144 11.8747 7.80329V10.5176H14.589C14.6809 10.5175 14.7719 10.536 14.8565 10.5722C14.941 10.6083 15.0173 10.6612 15.0808 10.7277C15.1442 10.7942 15.1935 10.873 15.2256 10.9591C15.2577 11.0452 15.272 11.137 15.2676 11.2288C15.2498 11.594 14.9351 11.8747 14.5699 11.8747Z" fill="#F9B234"/>
  <path d="M15.4324 2.03571C15.2213 1.4408 14.8313 0.925772 14.3158 0.5613C13.8004 0.196828 13.1848 0.000762124 12.5536 0H3.05357C2.24371 0 1.46703 0.321715 0.89437 0.89437C0.321715 1.46703 0 2.24371 0 3.05357V12.5536C0.000762124 13.1848 0.196828 13.8004 0.5613 14.3158C0.925772 14.8313 1.4408 15.2213 2.03571 15.4324V5.42857C2.03571 4.52873 2.39318 3.66574 3.02946 3.02946C3.66574 2.39318 4.52873 2.03571 5.42857 2.03571H15.4324Z" fill="#F9B234"/>
</svg>
