<svg width="24" height="24" viewBox="0 0 37 24" fill="none" xmlns="http://www.w3.org/2000/svg" xmlns:xlink="http://www.w3.org/1999/xlink">
  <path d="M25.7463 0.328143C25.655 0.227794 25.5443 0.147003 25.4208 0.0906529C25.2974 0.0343027 25.1638 0.00356322 25.0282 0.000291804C24.8925 -0.00297961 24.7576 0.021285 24.6316 0.0716195C24.5056 0.121954 24.3911 0.197313 24.2951 0.293143L23.522 1.06252C23.4283 1.15628 23.3756 1.2834 23.3756 1.41596C23.3756 1.54851 23.4283 1.67563 23.522 1.76939L24.2307 2.47689C24.2772 2.52357 24.3324 2.56061 24.3932 2.58588C24.454 2.61115 24.5192 2.62416 24.5851 2.62416C24.6509 2.62416 24.7161 2.61115 24.777 2.58588C24.8378 2.56061 24.893 2.52357 24.9395 2.47689L25.6932 1.72689C26.0745 1.34627 26.1101 0.726268 25.7463 0.328143ZM21.9588 2.62502L10.6763 13.8875C10.6079 13.9556 10.5582 14.0402 10.532 14.1331L10.0101 15.6875C9.99757 15.7297 9.99669 15.7745 10.0075 15.8171C10.0183 15.8597 10.0405 15.8987 10.0716 15.9298C10.1027 15.9609 10.1416 15.983 10.1842 15.9938C10.2269 16.0047 10.2717 16.0038 10.3138 15.9913L11.867 15.4694C11.9599 15.4431 12.0444 15.3934 12.1126 15.325L23.3751 4.04127C23.4793 3.93596 23.5377 3.79379 23.5377 3.64564C23.5377 3.4975 23.4793 3.35533 23.3751 3.25002L22.7532 2.62502C22.6478 2.51987 22.5049 2.46083 22.356 2.46083C22.2071 2.46083 22.0643 2.51987 21.9588 2.62502Z" fill="#03704D"/>
  <path d="M21.1462 9.10375L13.5281 16.7369C13.2337 17.032 12.8718 17.251 12.4738 17.375L10.855 17.9169C10.4708 18.0254 10.0647 18.0295 9.67841 17.9287C9.29213 17.828 8.9397 17.6261 8.65742 17.3438C8.37515 17.0616 8.17325 16.7091 8.07252 16.3228C7.9718 15.9366 7.97589 15.5304 8.08438 15.1462L8.62625 13.5275C8.74984 13.1296 8.96842 12.7677 9.26313 12.4731L16.8962 4.85375C16.9662 4.78386 17.0139 4.69479 17.0332 4.59781C17.0526 4.50082 17.0427 4.40028 17.0049 4.30889C16.9671 4.21751 16.9031 4.13938 16.8209 4.0844C16.7387 4.02942 16.642 4.00005 16.5431 4H3.5C2.57174 4 1.6815 4.36875 1.02513 5.02513C0.368749 5.6815 0 6.57174 0 7.5V22.5C0 23.4283 0.368749 24.3185 1.02513 24.9749C1.6815 25.6313 2.57174 26 3.5 26H18.5C19.4283 26 20.3185 25.6313 20.9749 24.9749C21.6313 24.3185 22 23.4283 22 22.5V9.45687C22 9.35798 21.9706 9.26132 21.9156 9.17912C21.8606 9.09692 21.7825 9.03287 21.6911 8.99507C21.5997 8.95727 21.4992 8.94742 21.4022 8.96677C21.3052 8.98611 21.2161 9.03378 21.1462 9.10375Z" fill="#03704D"/>
</svg>
