<svg width="20" height="20" viewBox="0 0 20 20" fill="none" xmlns="http://www.w3.org/2000/svg">
  <symbol id="svg_finance">
    <path d="M1.52514 14.5067C1.38728 14.5068 1.25235 14.4669 1.13663 14.392C1.02091 14.3171 0.929355 14.2103 0.873006 14.0845C0.191176 12.5617 -0.0987473 10.8925 0.0296556 9.229C0.158059 7.5655 0.700705 5.96057 1.60815 4.56047C2.51559 3.16038 3.75897 2.00962 5.225 1.21307C6.69102 0.416515 8.33307 -0.00050794 10.0015 4.643e-07C10.1909 4.643e-07 10.3726 0.0752438 10.5065 0.209178C10.6405 0.343112 10.7157 0.524766 10.7157 0.714177V9.99847C10.7157 10.1364 10.6758 10.2713 10.6008 10.3871C10.5258 10.5028 10.4189 10.5943 10.293 10.6506L1.81661 14.4424C1.7251 14.4842 1.62575 14.5062 1.52514 14.5067Z" fill="currentColor"/>
    <path d="M12.5705 1.61455C12.5187 1.60404 12.4652 1.60517 12.4139 1.61783C12.3626 1.63049 12.3148 1.65438 12.2738 1.68777C12.2329 1.72116 12.1999 1.76322 12.1771 1.81092C12.1544 1.85862 12.1425 1.91076 12.1424 1.9636V9.99809C12.1421 10.4116 12.0222 10.8162 11.7973 11.1632C11.5724 11.5102 11.2521 11.7848 10.8747 11.954L3.17637 15.399C3.12865 15.4204 3.08619 15.4519 3.05198 15.4914C3.01778 15.5309 2.99266 15.5774 2.9784 15.6277C2.96414 15.6779 2.96108 15.7307 2.96945 15.7823C2.97782 15.8339 2.99741 15.883 3.02684 15.9262C3.616 16.7927 4.34731 17.5534 5.1899 18.1763C6.78631 19.3639 8.72439 20.0025 10.7141 19.9966C15.8334 19.9966 19.9984 15.8316 19.9984 10.7123C19.9984 6.22857 16.8033 2.47691 12.5705 1.61455Z" fill="currentColor"/>
  </symbol>
</svg>
