<svg xmlns="http://www.w3.org/2000/svg" style="display:none">
  <symbol id="svg_land">
    <svg width="26.32" height="24" viewBox="0 0 34 31" fill="none" xmlns="http://www.w3.org/2000/svg">
      <path d="M10.9513 0.336375L11.0423 0.333984L11.1308 0.336299C11.1742 0.338766 11.2177 0.343222 11.2612 0.349725L11.2923 0.357012C11.4576 0.383253 11.6218 0.441607 11.7784 0.53326L11.8787 0.597408L21.6894 7.41639L31.4937 0.603816C32.3989 -0.025032 33.625 0.540183 33.7661 1.57747L33.7796 1.77732V22.1132C33.7796 22.5135 33.6105 22.8924 33.3187 23.1617L33.163 23.2868L22.5208 30.6817C22.0044 31.0405 21.3833 31.0105 20.9191 30.7259L11.0415 23.8571L1.23208 30.6752C0.327073 31.3041 -0.899168 30.7389 -1.0403 29.7015L-1.05371 29.5018V9.1658C-1.05371 8.76545 -0.884676 8.3866 -0.592966 8.11736L-0.437088 7.9923L10.205 0.597408C10.3289 0.51136 10.4587 0.447671 10.591 0.404484L10.828 0.350911L10.9513 0.336375ZM30.8772 4.53915L23.1375 9.91725V26.7463L30.8772 21.3682V4.53915ZM9.5884 4.53274L1.84868 9.91084V26.7398L9.5884 21.3617V4.53274ZM12.4954 4.53274V21.3617L20.2351 26.7398V9.91084L12.4954 4.53274Z" fill="currentColor"/>
    </svg>
  </symbol>
</svg>

