<svg width="14" height="20" viewBox="0 0 14 20" fill="none" xmlns="http://www.w3.org/2000/svg">
  <path d="M6.99961 8.39961C7.77281 8.39961 8.39961 7.77281 8.39961 6.99961C8.39961 6.22641 7.77281 5.59961 6.99961 5.59961C6.22641 5.59961 5.59961 6.22641 5.59961 6.99961C5.59961 7.77281 6.22641 8.39961 6.99961 8.39961Z" fill="black"/>
  <path d="M7 0C3.14037 0 0 3.00344 0 6.69375C0 8.45119 0.801062 10.7883 2.38087 13.6404C3.64962 15.9302 5.11744 18.0009 5.88087 19.0312C6.00988 19.2073 6.17855 19.3505 6.37322 19.4492C6.56788 19.5478 6.78306 19.5993 7.00131 19.5993C7.21956 19.5993 7.43474 19.5478 7.62941 19.4492C7.82407 19.3505 7.99275 19.2073 8.12175 19.0312C8.88388 18.0009 10.353 15.9302 11.6218 13.6404C13.1989 10.7892 14 8.45206 14 6.69375C14 3.00344 10.8596 0 7 0ZM7 9.8C6.44621 9.8 5.90486 9.63578 5.4444 9.32811C4.98395 9.02045 4.62506 8.58315 4.41314 8.07151C4.20121 7.55988 4.14576 6.99689 4.2538 6.45375C4.36184 5.9106 4.62851 5.41169 5.0201 5.0201C5.41169 4.62851 5.9106 4.36184 6.45375 4.2538C6.99689 4.14576 7.55988 4.20121 8.07151 4.41314C8.58315 4.62506 9.02045 4.98395 9.32811 5.4444C9.63578 5.90486 9.8 6.44621 9.8 7C9.79919 7.74236 9.50393 8.45408 8.979 8.979C8.45408 9.50393 7.74236 9.79919 7 9.8Z" fill="black"/>
</svg>
