<svg width="30" height="29" viewBox="0 0 30 29" fill="none" xmlns="http://www.w3.org/2000/svg">
  <path d="M0 5C0 2.23858 2.23858 0 5 0H25C27.7614 0 30 2.23858 30 5V24C30 26.7614 27.7614 29 25 29H5C2.23858 29 0 26.7614 0 24V5Z" fill="#066B4B" fill-opacity="0.7"/>
  <path d="M17.5455 22.3182V17.5455H22.3182M17.9801 17.9814L23 23M13.4545 8.68182V13.4545H8.68182M13.0199 13.0186L8 8M22.3182 13.4545H17.5455V8.68182M17.9814 13.0199L23 8M8.68182 17.5455H13.4545V22.3182M13.0186 17.9801L8 23" stroke="white" stroke-linecap="round" stroke-linejoin="round"/>
</svg>
