<svg width="20" height="20" viewBox="0 0 20 20" fill="none" xmlns="http://www.w3.org/2000/svg">
  <symbol id="svg_projects">
    <path d="M14.7273 0H3.27273C2.40504 0.000951243 1.57316 0.347429 0.959606 0.963414C0.346056 1.5794 0.000947483 2.41458 0 3.28571V19.7143C0.000947483 20.5854 0.346056 21.4206 0.959606 22.0366C1.57316 22.6526 2.40504 22.9991 3.27273 23H14.7273C15.595 22.9991 16.4268 22.6526 17.0404 22.0366C17.6539 21.4206 17.9991 20.5854 18 19.7143V3.28571C17.9991 2.41458 17.6539 1.5794 17.0404 0.963414C16.4268 0.347429 15.595 0.000951243 14.7273 0ZM9 13.9643H4.90909C4.6921 13.9643 4.48399 13.8777 4.33055 13.7237C4.17711 13.5696 4.09091 13.3607 4.09091 13.1429C4.09091 12.925 4.17711 12.7161 4.33055 12.562C4.48399 12.408 4.6921 12.3214 4.90909 12.3214H9C9.217 12.3214 9.4251 12.408 9.57854 12.562C9.73198 12.7161 9.81818 12.925 9.81818 13.1429C9.81818 13.3607 9.73198 13.5696 9.57854 13.7237C9.4251 13.8777 9.217 13.9643 9 13.9643ZM13.0909 9.85714H4.90909C4.6921 9.85714 4.48399 9.7706 4.33055 9.61655C4.17711 9.4625 4.09091 9.25357 4.09091 9.03571C4.09091 8.81786 4.17711 8.60892 4.33055 8.45488C4.48399 8.30083 4.6921 8.21429 4.90909 8.21429H13.0909C13.3079 8.21429 13.516 8.30083 13.6695 8.45488C13.8229 8.60892 13.9091 8.81786 13.9091 9.03571C13.9091 9.25357 13.8229 9.4625 13.6695 9.61655C13.516 9.7706 13.3079 9.85714 13.0909 9.85714ZM13.0909 5.75H4.90909C4.6921 5.75 4.48399 5.66346 4.33055 5.50941C4.17711 5.35536 4.09091 5.14643 4.09091 4.92857C4.09091 4.71072 4.17711 4.50178 4.33055 4.34773C4.48399 4.19369 4.6921 4.10714 4.90909 4.10714H13.0909C13.3079 4.10714 13.516 4.19369 13.6695 4.34773C13.8229 4.50178 13.9091 4.71072 13.9091 4.92857C13.9091 5.14643 13.8229 5.35536 13.6695 5.50941C13.516 5.66346 13.3079 5.75 13.0909 5.75Z" fill="currentColor"/>
  </symbol>
</svg>
