<svg width="22" height="15" viewBox="0 0 22 15" fill="none" xmlns="http://www.w3.org/2000/svg">
  <path d="M11.0007 10.434C12.6208 10.434 13.934 9.12075 13.934 7.50072C13.934 5.88068 12.6208 4.56738 11.0007 4.56738C9.38068 4.56738 8.06738 5.88068 8.06738 7.50072C8.06738 9.12075 9.38068 10.434 11.0007 10.434Z" fill="#F9B234"/>
  <path d="M17.3626 2.23774C15.3588 0.863658 13.2142 0.166992 10.989 0.166992C8.98654 0.166992 7.0345 0.762825 5.18696 1.93066C3.32383 3.11087 1.49737 5.25449 0 7.50033C1.21092 9.51699 2.86733 11.5905 4.5925 12.7794C6.57158 14.1425 8.72346 14.8337 10.989 14.8337C13.2348 14.8337 15.3821 14.1429 17.3736 12.7808C19.1267 11.5795 20.795 9.50874 22 7.50033C20.7909 5.50978 19.1171 3.44132 17.3626 2.23774ZM11 11.9003C10.1298 11.9003 9.27907 11.6423 8.55549 11.1588C7.83191 10.6753 7.26796 9.98813 6.93493 9.18413C6.6019 8.38014 6.51477 7.49544 6.68455 6.64193C6.85432 5.78841 7.27338 5.00441 7.88873 4.38906C8.50408 3.7737 9.28809 3.35465 10.1416 3.18487C10.9951 3.0151 11.8798 3.10223 12.6838 3.43526C13.4878 3.76828 14.175 4.33224 14.6585 5.05582C15.1419 5.77939 15.4 6.63009 15.4 7.50033C15.3987 8.66687 14.9347 9.78525 14.1098 10.6101C13.2849 11.435 12.1665 11.899 11 11.9003Z" fill="#F9B234"/>
</svg>
