<svg width="24" height="24" viewBox="0 0 37 24" fill="none" xmlns="http://www.w3.org/2000/svg" xmlns:xlink="http://www.w3.org/1999/xlink">
    <path d="M17.5026 16.3333C20.0799 16.3333 22.1692 14.2439 22.1692 11.6666C22.1692 9.08932 20.0799 7 17.5026 7C14.9253 7 12.8359 9.08932 12.8359 11.6666C12.8359 14.2439 14.9253 16.3333 17.5026 16.3333Z" fill="#03704D" />
    <path d="M34.625 10.3978C32.6956 7.41411 30.1924 4.87955 27.3866 3.06758C24.2825 1.06093 20.8555 0 17.4765 0C14.3761 0 11.3275 0.885931 8.41525 2.633C5.44537 4.41434 2.75477 7.01672 0.417805 10.3672C0.153984 10.7459 0.00868674 11.1944 0.000377438 11.6558C-0.00793187 12.1173 0.121122 12.5707 0.371139 12.9587C2.29685 15.9723 4.77527 18.5105 7.53734 20.2977C10.6472 22.3123 13.9941 23.3332 17.4765 23.3332C20.8825 23.3332 24.3168 22.281 27.4077 20.2911C30.2121 18.485 32.7102 15.9409 34.6323 12.9324C34.8737 12.5535 35.0013 12.1133 35 11.6641C34.9987 11.2148 34.8685 10.7753 34.625 10.3978ZM17.5013 18.6665C16.1169 18.6665 14.7635 18.256 13.6124 17.4868C12.4612 16.7177 11.564 15.6244 11.0342 14.3453C10.5044 13.0663 10.3658 11.6588 10.6359 10.301C10.906 8.9431 11.5727 7.69583 12.5516 6.71687C13.5306 5.73791 14.7779 5.07123 16.1357 4.80114C17.4936 4.53104 18.901 4.66966 20.1801 5.19947C21.4592 5.72928 22.5524 6.62648 23.3216 7.77762C24.0907 8.92876 24.5013 10.2821 24.5013 11.6666C24.4992 13.5224 23.761 15.3017 22.4487 16.614C21.1364 17.9262 19.3572 18.6644 17.5013 18.6665Z" fill="#03704D"/>
</svg>

